<?xml version="1.0" standalone="no"?>
<!DOCTYPE svg PUBLIC "-//W3C//DTD SVG 20010904//EN"
 "http://www.w3.org/TR/2001/REC-SVG-20010904/DTD/svg10.dtd">
<svg version="1.0" xmlns="http://www.w3.org/2000/svg"
 width="512.000000pt" height="512.000000pt" viewBox="0 0 512.000000 512.000000"
 preserveAspectRatio="xMidYMid meet">

<g transform="translate(0.000000,512.000000) scale(0.100000,-0.100000)"
fill="#000000" stroke="none">
<path d="M308 4144 c-34 -18 -58 -62 -58 -105 0 -29 190 -1432 226 -1669 9
-58 26 -132 39 -166 44 -117 58 -205 52 -337 -4 -107 -21 -200 -136 -744 -72
-343 -131 -641 -131 -664 0 -33 6 -47 34 -75 29 -29 41 -34 81 -34 54 0 97 25
113 67 7 16 79 352 162 748 158 754 164 775 226 824 14 11 45 27 70 37 l45 17
-3 121 -3 121 -146 3 -147 3 -6 32 c-3 17 -58 415 -121 882 -64 468 -119 860
-122 872 -3 13 -21 36 -39 53 -39 34 -90 39 -136 14z"/>
<path d="M4676 4130 c-18 -17 -36 -40 -39 -53 -3 -12 -58 -404 -121 -872 -64
-467 -118 -865 -121 -882 l-6 -32 -147 -3 -147 -3 -3 -122 -3 -122 43 -13 c55
-16 121 -81 141 -138 9 -25 82 -358 162 -740 80 -382 150 -710 156 -728 14
-43 61 -72 118 -72 36 0 49 6 77 34 28 28 34 42 34 76 0 23 -59 322 -132 663
-167 793 -169 810 -83 1082 31 98 47 200 151 965 70 517 114 871 111 895 -13
91 -120 127 -191 65z"/>
<path d="M1452 3219 c-100 -17 -188 -84 -234 -177 -23 -47 -23 -49 -23 -447
l0 -400 29 -58 c20 -41 44 -71 84 -102 74 -58 1126 -552 1201 -564 28 -4 74
-4 103 0 46 8 455 193 1025 464 163 78 220 123 265 207 23 43 23 44 23 448 0
405 0 405 -23 453 -34 68 -102 131 -170 159 l-57 23 -1085 1 c-600 1 -1109 -2
-1138 -7z"/>
<path d="M1292 1153 l3 -689 25 -36 c33 -49 75 -72 131 -72 62 0 109 29 137
84 l22 44 0 609 0 608 -137 65 c-75 35 -147 67 -160 70 l-24 6 3 -689z"/>
<path d="M3660 1770 c-69 -32 -137 -65 -152 -74 l-28 -15 0 -583 c0 -388 4
-596 11 -623 39 -143 230 -164 290 -31 18 39 19 78 19 714 0 369 -3 672 -7
672 -5 -1 -64 -27 -133 -60z"/>
</g>
</svg>
